<svg xmlns="http://www.w3.org/2000/svg" class="" viewBox="0 0 1363.4 160" width="1363.4" height="160" style="display: block; user-select: none;"><defs xmlns="http://www.w3.org/1999/xhtml"><style type="text/css">&lt;!--/*--&gt;&lt;![CDATA[/*&gt;&lt;!--*/

  /* from https://fonts.googleapis.com/css2?family=IBM+Plex+Sans&amp;display=swap */
  @font-face {
    font-family: 'IBM Plex Sans';
    font-style: normal;
    font-weight: 400;
    font-display: swap;
    src: url(https://fonts.gstatic.com/s/ibmplexsans/v14/zYXgKVElMYYaJe8bpLHnCwDKhdHeFaxOedc.woff2) format('woff2');
  }
  
  /* from https://fonts.googleapis.com/css2?family=IBM+Plex+Mono&amp;display=swap */
  @font-face {
    font-family: 'IBM Plex Mono';
    font-style: normal;
    font-weight: 400;
    font-display: swap;
    src: url(https://fonts.gstatic.com/s/ibmplexmono/v12/-F63fjptAgt5VM-kVkqdyU8n1i8q131nj-o.woff2) format('woff2');
  }    

/*]]&gt;*/--&gt;</style></defs><rect x="0" y="0" width="1363.4" height="160" style="fill: rgb(255, 255, 255);"/><g><g transform="translate(20, 0)"><g><g><text x="38.4" y="36" dy=".3em" style="fill: rgb(111, 111, 111); font-family: &quot;IBM Plex Mono&quot;, monospace; font-weight: 400; text-anchor: end; font-size: 14px;"><tspan>q[0]</tspan></text><text x="38.4" y="76" dy=".3em" style="fill: rgb(111, 111, 111); font-family: &quot;IBM Plex Mono&quot;, monospace; font-weight: 400; text-anchor: end; font-size: 14px;"><tspan>q[1]</tspan></text></g><g><text x="38.4" y="116" dy=".3em" style="fill: rgb(111, 111, 111); font-family: &quot;IBM Plex Mono&quot;, monospace; font-weight: 400; text-anchor: end; font-size: 14px;">c4</text></g></g></g><g><g><line x1="68.4" x2="1343.4" y1="36" y2="36" style="fill: none; stroke: rgb(224, 224, 224); stroke-width: 1; stroke-linecap: round;"/><line x1="68.4" x2="1343.4" y1="76" y2="76" style="fill: none; stroke: rgb(224, 224, 224); stroke-width: 1; stroke-linecap: round;"/></g><line x1="68.4" x2="1343.4" y1="114" y2="114" style="fill: none; stroke: rgb(224, 224, 224); stroke-width: 1; stroke-linecap: round;"/><line x1="68.4" x2="1343.4" y1="118" y2="118" style="fill: none; stroke: rgb(224, 224, 224); stroke-width: 1; stroke-linecap: round;"/></g><g><rect x="77.65" y="21.25" width="143.5" height="29.5" style="fill: rgb(255, 255, 255); stroke-width: 2.5; stroke: rgb(22, 22, 22); paint-order: stroke;"/><text x="149.4" y="36" dy=".3em" style="font-family: &quot;IBM Plex Sans&quot;, sans-serif; font-size: 16px; font-style: normal; fill: rgb(22, 22, 22); font-weight: 400; text-anchor: middle;">kunfermanpibase</text></g><g><rect x="77.65" y="61.25" width="143.5" height="29.5" style="fill: rgb(255, 255, 255); stroke-width: 2.5; stroke: rgb(22, 22, 22); paint-order: stroke;"/><text x="149.4" y="76" dy=".3em" style="font-family: &quot;IBM Plex Sans&quot;, sans-serif; font-size: 16px; font-style: normal; fill: rgb(22, 22, 22); font-weight: 400; text-anchor: middle;">kunfermanpibase</text></g><g transform="translate(238.39999999999998, 36)"><line x1="0" y1="-16" x2="0" y2="-2" style="stroke-width: 1; stroke: rgb(255, 255, 255);"/><line x1="0" y1="2" x2="0" y2="16" style="stroke-width: 1; stroke: rgb(255, 255, 255);"/></g><g transform="translate(238.39999999999998, 76)"><line x1="0" y1="-16" x2="0" y2="-2" style="stroke-width: 1; stroke: rgb(255, 255, 255);"/><line x1="0" y1="2" x2="0" y2="16" style="stroke-width: 1; stroke: rgb(255, 255, 255);"/></g><g data-testid="phaseDisk-q[0]"><g transform="translate(247.4, 20)"><defs><clipPath id="radix-:rv0:"><circle cx="16" cy="16" r="16"/></clipPath></defs><g><circle cx="16" cy="16" r="16" fill="#e8e8e8"/><g clip-path="url(#radix-:rv0:)"><rect x="0" y="0" width="32" height="32" fill="#33b1ff"/><rect x="0" y="0" width="32" height="0" fill="#e8e8e8"/></g><circle cx="16" cy="16" r="15.25" fill="none" stroke="#161616" stroke-width="1.5"/><line stroke="#161616" stroke-width="2" x1="16" y1="16" x2="32" y2="16"/></g></g><rect width="32" height="32" y="20" x="247.4" data-state="closed" style="fill: transparent;"/></g><g data-testid="phaseDisk-q[1]"><g transform="translate(247.4, 60)"><defs><clipPath id="radix-:rv1:"><circle cx="16" cy="16" r="16"/></clipPath></defs><g><circle cx="16" cy="16" r="16" fill="#e8e8e8"/><g clip-path="url(#radix-:rv1:)"><rect x="0" y="0" width="32" height="32" fill="#33b1ff"/><rect x="0" y="0" width="32" height="0" fill="#e8e8e8"/></g><circle cx="16" cy="16" r="15.25" fill="none" stroke="#161616" stroke-width="1.5"/><line stroke="#161616" stroke-width="2" x1="16" y1="16" x2="32" y2="16"/></g></g><rect width="32" height="32" y="60" x="247.4" data-state="closed" style="fill: transparent;"/></g><g><rect x="296.65" y="21.25" width="56.5" height="29.5" style="fill: rgb(255, 255, 255); stroke-width: 2.5; stroke: rgb(22, 22, 22); paint-order: stroke;"/><text x="324.9" y="33" dy=".3em" style="font-family: &quot;IBM Plex Sans&quot;, sans-serif; font-size: 16px; font-style: normal; fill: rgb(22, 22, 22); font-weight: 400; text-anchor: middle;">RX</text><text x="324.9" y="46" dy=".3em" style="font-family: &quot;IBM Plex Mono&quot;, monospace; font-size: 8px; font-style: normal; fill: rgb(22, 22, 22); font-weight: 400; text-anchor: middle;">(pi / 2)</text></g><g><rect x="296.65" y="61.25" width="56.5" height="29.5" style="fill: rgb(255, 255, 255); stroke-width: 2.5; stroke: rgb(22, 22, 22); paint-order: stroke;"/><text x="324.9" y="73" dy=".3em" style="font-family: &quot;IBM Plex Sans&quot;, sans-serif; font-size: 16px; font-style: normal; fill: rgb(22, 22, 22); font-weight: 400; text-anchor: middle;">RX</text><text x="324.9" y="86" dy=".3em" style="font-family: &quot;IBM Plex Mono&quot;, monospace; font-size: 8px; font-style: normal; fill: rgb(22, 22, 22); font-weight: 400; text-anchor: middle;">(pi / 2)</text></g><g transform="translate(370.4, 36)"><line x1="0" y1="-16" x2="0" y2="-2" style="stroke-width: 1; stroke: rgb(255, 255, 255);"/><line x1="0" y1="2" x2="0" y2="16" style="stroke-width: 1; stroke: rgb(255, 255, 255);"/></g><g transform="translate(370.4, 76)"><line x1="0" y1="-16" x2="0" y2="-2" style="stroke-width: 1; stroke: rgb(255, 255, 255);"/><line x1="0" y1="2" x2="0" y2="16" style="stroke-width: 1; stroke: rgb(255, 255, 255);"/></g><g data-testid="phaseDisk-q[0]"><g transform="translate(379.4, 20)"><defs><clipPath id="radix-:rv2:"><circle cx="16" cy="16" r="16"/></clipPath></defs><g><circle cx="16" cy="16" r="16" fill="#e8e8e8"/><g clip-path="url(#radix-:rv2:)"><rect x="0" y="16" width="32" height="16" fill="#33b1ff"/><rect x="0" y="0" width="32" height="16" fill="#e8e8e8"/></g><circle cx="16" cy="16" r="15.25" fill="none" stroke="#161616" stroke-width="1.5"/><line stroke="#161616" stroke-width="2" x1="16" y1="16" x2="15.99999930061776" y2="1.5987211554602254e-14"/></g></g><rect width="32" height="32" y="20" x="379.4" data-state="closed" style="fill: transparent;"/></g><g data-testid="phaseDisk-q[1]"><g transform="translate(379.4, 60)"><defs><clipPath id="radix-:rv3:"><circle cx="16" cy="16" r="16"/></clipPath></defs><g><circle cx="16" cy="16" r="16" fill="#e8e8e8"/><g clip-path="url(#radix-:rv3:)"><rect x="0" y="16" width="32" height="16" fill="#33b1ff"/><rect x="0" y="0" width="32" height="16" fill="#e8e8e8"/></g><circle cx="16" cy="16" r="15.25" fill="none" stroke="#161616" stroke-width="1.5"/><line stroke="#161616" stroke-width="2" x1="16" y1="16" x2="15.99999930061776" y2="1.5987211554602254e-14"/></g></g><rect width="32" height="32" y="60" x="379.4" data-state="closed" style="fill: transparent;"/></g><g><rect x="428.65" y="21.25" width="29.5" height="29.5" style="fill: rgb(255, 255, 255); stroke-width: 2.5; stroke: rgb(22, 22, 22); paint-order: stroke;"/><text x="443.4" y="36" dy=".3em" style="font-family: &quot;IBM Plex Sans&quot;, sans-serif; font-size: 16px; font-style: normal; fill: rgb(22, 22, 22); font-weight: 400; text-anchor: middle;">T</text></g><path transform="translate(424.95, 17.325)" d="M25.45 12.675V16.125L26 17.125L26.55 16.125V12.675H28V11.575H26.55V10.125H25.45V11.575H24V12.675H25.45Z" fill="#161616"/><g><rect x="428.65" y="61.25" width="29.5" height="29.5" style="fill: rgb(255, 255, 255); stroke-width: 2.5; stroke: rgb(22, 22, 22); paint-order: stroke;"/><text x="443.4" y="76" dy=".3em" style="font-family: &quot;IBM Plex Sans&quot;, sans-serif; font-size: 16px; font-style: normal; fill: rgb(22, 22, 22); font-weight: 400; text-anchor: middle;">T</text></g><g transform="translate(475.4, 36)"><line x1="0" y1="-16" x2="0" y2="-2" style="stroke-width: 1; stroke: rgb(255, 255, 255);"/><line x1="0" y1="2" x2="0" y2="16" style="stroke-width: 1; stroke: rgb(255, 255, 255);"/></g><g transform="translate(475.4, 76)"><line x1="0" y1="-16" x2="0" y2="-2" style="stroke-width: 1; stroke: rgb(255, 255, 255);"/><line x1="0" y1="2" x2="0" y2="16" style="stroke-width: 1; stroke: rgb(255, 255, 255);"/></g><g data-testid="phaseDisk-q[0]"><g transform="translate(484.4, 20)"><defs><clipPath id="radix-:rv4:"><circle cx="16" cy="16" r="16"/></clipPath></defs><g><circle cx="16" cy="16" r="16" fill="#e8e8e8"/><g clip-path="url(#radix-:rv4:)"><rect x="0" y="16" width="32" height="16" fill="#33b1ff"/><rect x="0" y="0" width="32" height="16" fill="#e8e8e8"/></g><circle cx="16" cy="16" r="15.249845975209666" fill="none" stroke="#161616" stroke-width="1.5"/><line stroke="#161616" stroke-width="2" x1="16" y1="16" x2="27.313708251715795" y2="4.68629125374628"/></g></g><rect width="32" height="32" y="20" x="484.4" data-state="closed" style="fill: transparent;"/></g><g data-testid="phaseDisk-q[1]"><g transform="translate(484.4, 60)"><defs><clipPath id="radix-:rv5:"><circle cx="16" cy="16" r="16"/></clipPath></defs><g><circle cx="16" cy="16" r="16" fill="#e8e8e8"/><g clip-path="url(#radix-:rv5:)"><rect x="0" y="16" width="32" height="16" fill="#33b1ff"/><rect x="0" y="0" width="32" height="16" fill="#e8e8e8"/></g><circle cx="16" cy="16" r="15.249845975209666" fill="none" stroke="#161616" stroke-width="1.5"/><line stroke="#161616" stroke-width="2" x1="16" y1="16" x2="4.68629143355793" y2="4.68629156847255"/></g></g><rect width="32" height="32" y="60" x="484.4" data-state="closed" style="fill: transparent;"/></g><g><rect x="533.65" y="21.25" width="29.5" height="29.5" style="fill: rgb(255, 255, 255); stroke-width: 2.5; stroke: rgb(22, 22, 22); paint-order: stroke;"/><text x="548.4" y="36" dy=".3em" style="font-family: &quot;IBM Plex Sans&quot;, sans-serif; font-size: 16px; font-style: normal; fill: rgb(22, 22, 22); font-weight: 400; text-anchor: middle;">S</text></g><path transform="translate(528.9499999999999, 17.325)" d="M25.45 12.675V16.125L26 17.125L26.55 16.125V12.675H28V11.575H26.55V10.125H25.45V11.575H24V12.675H25.45Z" fill="#161616"/><g><rect x="533.65" y="61.25" width="29.5" height="29.5" style="fill: rgb(255, 255, 255); stroke-width: 2.5; stroke: rgb(22, 22, 22); paint-order: stroke;"/><text x="548.4" y="76" dy=".3em" style="font-family: &quot;IBM Plex Sans&quot;, sans-serif; font-size: 16px; font-style: normal; fill: rgb(22, 22, 22); font-weight: 400; text-anchor: middle;">S</text></g><g transform="translate(580.4, 36)"><line x1="0" y1="-16" x2="0" y2="-2" style="stroke-width: 1; stroke: rgb(255, 255, 255);"/><line x1="0" y1="2" x2="0" y2="16" style="stroke-width: 1; stroke: rgb(255, 255, 255);"/></g><g transform="translate(580.4, 76)"><line x1="0" y1="-16" x2="0" y2="-2" style="stroke-width: 1; stroke: rgb(255, 255, 255);"/><line x1="0" y1="2" x2="0" y2="16" style="stroke-width: 1; stroke: rgb(255, 255, 255);"/></g><g data-testid="phaseDisk-q[0]"><g transform="translate(589.4, 20)"><defs><clipPath id="radix-:rv6:"><circle cx="16" cy="16" r="16"/></clipPath></defs><g><circle cx="16" cy="16" r="16" fill="#e8e8e8"/><g clip-path="url(#radix-:rv6:)"><rect x="0" y="16" width="32" height="16" fill="#33b1ff"/><rect x="0" y="0" width="32" height="16" fill="#e8e8e8"/></g><circle cx="16" cy="16" r="15.249845975209666" fill="none" stroke="#161616" stroke-width="1.5"/><line stroke="#161616" stroke-width="2" x1="16" y1="16" x2="27.3137122529156" y2="27.313704745052675"/></g></g><rect width="32" height="32" y="20" x="589.4" data-state="closed" style="fill: transparent;"/></g><g data-testid="phaseDisk-q[1]"><g transform="translate(589.4, 60)"><defs><clipPath id="radix-:rv7:"><circle cx="16" cy="16" r="16"/></clipPath></defs><g><circle cx="16" cy="16" r="16" fill="#e8e8e8"/><g clip-path="url(#radix-:rv7:)"><rect x="0" y="16" width="32" height="16" fill="#33b1ff"/><rect x="0" y="0" width="32" height="16" fill="#e8e8e8"/></g><circle cx="16" cy="16" r="15.249845975209666" fill="none" stroke="#161616" stroke-width="1.5"/><line stroke="#161616" stroke-width="2" x1="16" y1="16" x2="4.686293411709789" y2="27.313710409678986"/></g></g><rect width="32" height="32" y="60" x="589.4" data-state="closed" style="fill: transparent;"/></g><g><rect x="638.65" y="21.25" width="29.5" height="29.5" style="fill: rgb(255, 255, 255); stroke-width: 2.5; stroke: rgb(22, 22, 22); paint-order: stroke;"/><text x="653.4" y="36" dy=".3em" style="font-family: &quot;IBM Plex Sans&quot;, sans-serif; font-size: 16px; font-style: normal; fill: rgb(22, 22, 22); font-weight: 400; text-anchor: middle;">T</text></g><path transform="translate(634.9499999999999, 17.325)" d="M25.45 12.675V16.125L26 17.125L26.55 16.125V12.675H28V11.575H26.55V10.125H25.45V11.575H24V12.675H25.45Z" fill="#161616"/><g><rect x="638.65" y="61.25" width="29.5" height="29.5" style="fill: rgb(255, 255, 255); stroke-width: 2.5; stroke: rgb(22, 22, 22); paint-order: stroke;"/><text x="653.4" y="76" dy=".3em" style="font-family: &quot;IBM Plex Sans&quot;, sans-serif; font-size: 16px; font-style: normal; fill: rgb(22, 22, 22); font-weight: 400; text-anchor: middle;">T</text></g><g transform="translate(685.4, 36)"><line x1="0" y1="-16" x2="0" y2="-2" style="stroke-width: 1; stroke: rgb(255, 255, 255);"/><line x1="0" y1="2" x2="0" y2="16" style="stroke-width: 1; stroke: rgb(255, 255, 255);"/></g><g transform="translate(685.4, 76)"><line x1="0" y1="-16" x2="0" y2="-2" style="stroke-width: 1; stroke: rgb(255, 255, 255);"/><line x1="0" y1="2" x2="0" y2="16" style="stroke-width: 1; stroke: rgb(255, 255, 255);"/></g><g data-testid="phaseDisk-q[0]"><g transform="translate(694.4, 20)"><defs><clipPath id="radix-:rv8:"><circle cx="16" cy="16" r="16"/></clipPath></defs><g><circle cx="16" cy="16" r="16" fill="#e8e8e8"/><g clip-path="url(#radix-:rv8:)"><rect x="0" y="16" width="32" height="16" fill="#33b1ff"/><rect x="0" y="0" width="32" height="16" fill="#e8e8e8"/></g><circle cx="16" cy="16" r="15.25" fill="none" stroke="#161616" stroke-width="1.5"/><line stroke="#161616" stroke-width="2" x1="16" y1="16" x2="16.000000190798087" y2="32"/></g></g><rect width="32" height="32" y="20" x="694.4" data-state="closed" style="fill: transparent;"/></g><g data-testid="phaseDisk-q[1]"><g transform="translate(694.4, 60)"><defs><clipPath id="radix-:rv9:"><circle cx="16" cy="16" r="16"/></clipPath></defs><g><circle cx="16" cy="16" r="16" fill="#e8e8e8"/><g clip-path="url(#radix-:rv9:)"><rect x="0" y="16" width="32" height="16" fill="#33b1ff"/><rect x="0" y="0" width="32" height="16" fill="#e8e8e8"/></g><circle cx="16" cy="16" r="15.25" fill="none" stroke="#161616" stroke-width="1.5"/><line stroke="#161616" stroke-width="2" x1="16" y1="16" x2="16.000000190798087" y2="32"/></g></g><rect width="32" height="32" y="60" x="694.4" data-state="closed" style="fill: transparent;"/></g><g><rect x="743.65" y="21.25" width="29.5" height="29.5" style="fill: rgb(255, 255, 255); stroke-width: 2.5; stroke: rgb(22, 22, 22); paint-order: stroke;"/><text x="758.4" y="36" dy=".3em" style="font-family: &quot;IBM Plex Sans&quot;, sans-serif; font-size: 16px; font-style: normal; fill: rgb(22, 22, 22); font-weight: 400; text-anchor: middle;">T</text></g><path transform="translate(739.9499999999999, 17.325)" d="M25.45 12.675V16.125L26 17.125L26.55 16.125V12.675H28V11.575H26.55V10.125H25.45V11.575H24V12.675H25.45Z" fill="#161616"/><g><rect x="743.65" y="61.25" width="29.5" height="29.5" style="fill: rgb(255, 255, 255); stroke-width: 2.5; stroke: rgb(22, 22, 22); paint-order: stroke;"/><text x="758.4" y="76" dy=".3em" style="font-family: &quot;IBM Plex Sans&quot;, sans-serif; font-size: 16px; font-style: normal; fill: rgb(22, 22, 22); font-weight: 400; text-anchor: middle;">T</text></g><g transform="translate(790.4, 36)"><line x1="0" y1="-16" x2="0" y2="-2" style="stroke-width: 1; stroke: rgb(255, 255, 255);"/><line x1="0" y1="2" x2="0" y2="16" style="stroke-width: 1; stroke: rgb(255, 255, 255);"/></g><g transform="translate(790.4, 76)"><line x1="0" y1="-16" x2="0" y2="-2" style="stroke-width: 1; stroke: rgb(255, 255, 255);"/><line x1="0" y1="2" x2="0" y2="16" style="stroke-width: 1; stroke: rgb(255, 255, 255);"/></g><g data-testid="phaseDisk-q[0]"><g transform="translate(799.4, 20)"><defs><clipPath id="radix-:rva:"><circle cx="16" cy="16" r="16"/></clipPath></defs><g><circle cx="16" cy="16" r="16" fill="#e8e8e8"/><g clip-path="url(#radix-:rva:)"><rect x="0" y="16" width="32" height="16" fill="#33b1ff"/><rect x="0" y="0" width="32" height="16" fill="#e8e8e8"/></g><circle cx="16" cy="16" r="15.249845975209666" fill="none" stroke="#161616" stroke-width="1.5"/><line stroke="#161616" stroke-width="2" x1="16" y1="16" x2="4.686293411709789" y2="27.313710409678986"/></g></g><rect width="32" height="32" y="20" x="799.4" data-state="closed" style="fill: transparent;"/></g><g data-testid="phaseDisk-q[1]"><g transform="translate(799.4, 60)"><defs><clipPath id="radix-:rvb:"><circle cx="16" cy="16" r="16"/></clipPath></defs><g><circle cx="16" cy="16" r="16" fill="#e8e8e8"/><g clip-path="url(#radix-:rvb:)"><rect x="0" y="16" width="32" height="16" fill="#33b1ff"/><rect x="0" y="0" width="32" height="16" fill="#e8e8e8"/></g><circle cx="16" cy="16" r="15.249845975209666" fill="none" stroke="#161616" stroke-width="1.5"/><line stroke="#161616" stroke-width="2" x1="16" y1="16" x2="27.3137122529156" y2="27.313704745052675"/></g></g><rect width="32" height="32" y="60" x="799.4" data-state="closed" style="fill: transparent;"/></g><g><rect x="848.65" y="21.25" width="29.5" height="29.5" style="fill: rgb(255, 255, 255); stroke-width: 2.5; stroke: rgb(22, 22, 22); paint-order: stroke;"/><text x="863.4" y="36" dy=".3em" style="font-family: &quot;IBM Plex Sans&quot;, sans-serif; font-size: 16px; font-style: normal; fill: rgb(22, 22, 22); font-weight: 400; text-anchor: middle;">S</text></g><path transform="translate(843.9499999999999, 17.325)" d="M25.45 12.675V16.125L26 17.125L26.55 16.125V12.675H28V11.575H26.55V10.125H25.45V11.575H24V12.675H25.45Z" fill="#161616"/><g><rect x="848.65" y="61.25" width="29.5" height="29.5" style="fill: rgb(255, 255, 255); stroke-width: 2.5; stroke: rgb(22, 22, 22); paint-order: stroke;"/><text x="863.4" y="76" dy=".3em" style="font-family: &quot;IBM Plex Sans&quot;, sans-serif; font-size: 16px; font-style: normal; fill: rgb(22, 22, 22); font-weight: 400; text-anchor: middle;">S</text></g><g transform="translate(895.4, 36)"><line x1="0" y1="-16" x2="0" y2="-2" style="stroke-width: 1; stroke: rgb(255, 255, 255);"/><line x1="0" y1="2" x2="0" y2="16" style="stroke-width: 1; stroke: rgb(255, 255, 255);"/></g><g transform="translate(895.4, 76)"><line x1="0" y1="-16" x2="0" y2="-2" style="stroke-width: 1; stroke: rgb(255, 255, 255);"/><line x1="0" y1="2" x2="0" y2="16" style="stroke-width: 1; stroke: rgb(255, 255, 255);"/></g><g data-testid="phaseDisk-q[0]"><g transform="translate(904.4, 20)"><defs><clipPath id="radix-:rvc:"><circle cx="16" cy="16" r="16"/></clipPath></defs><g><circle cx="16" cy="16" r="16" fill="#e8e8e8"/><g clip-path="url(#radix-:rvc:)"><rect x="0" y="16" width="32" height="16" fill="#33b1ff"/><rect x="0" y="0" width="32" height="16" fill="#e8e8e8"/></g><circle cx="16" cy="16" r="15.249845975209666" fill="none" stroke="#161616" stroke-width="1.5"/><line stroke="#161616" stroke-width="2" x1="16" y1="16" x2="4.68629143355793" y2="4.68629156847255"/></g></g><rect width="32" height="32" y="20" x="904.4" data-state="closed" style="fill: transparent;"/></g><g data-testid="phaseDisk-q[1]"><g transform="translate(904.4, 60)"><defs><clipPath id="radix-:rvd:"><circle cx="16" cy="16" r="16"/></clipPath></defs><g><circle cx="16" cy="16" r="16" fill="#e8e8e8"/><g clip-path="url(#radix-:rvd:)"><rect x="0" y="16" width="32" height="16" fill="#33b1ff"/><rect x="0" y="0" width="32" height="16" fill="#e8e8e8"/></g><circle cx="16" cy="16" r="15.249845975209666" fill="none" stroke="#161616" stroke-width="1.5"/><line stroke="#161616" stroke-width="2" x1="16" y1="16" x2="27.313708251715795" y2="4.68629125374628"/></g></g><rect width="32" height="32" y="60" x="904.4" data-state="closed" style="fill: transparent;"/></g><g><rect x="953.65" y="21.25" width="29.5" height="29.5" style="fill: rgb(255, 255, 255); stroke-width: 2.5; stroke: rgb(22, 22, 22); paint-order: stroke;"/><text x="968.4" y="36" dy=".3em" style="font-family: &quot;IBM Plex Sans&quot;, sans-serif; font-size: 16px; font-style: normal; fill: rgb(22, 22, 22); font-weight: 400; text-anchor: middle;">T</text></g><path transform="translate(949.9499999999999, 17.325)" d="M25.45 12.675V16.125L26 17.125L26.55 16.125V12.675H28V11.575H26.55V10.125H25.45V11.575H24V12.675H25.45Z" fill="#161616"/><g><rect x="953.65" y="61.25" width="29.5" height="29.5" style="fill: rgb(255, 255, 255); stroke-width: 2.5; stroke: rgb(22, 22, 22); paint-order: stroke;"/><text x="968.4" y="76" dy=".3em" style="font-family: &quot;IBM Plex Sans&quot;, sans-serif; font-size: 16px; font-style: normal; fill: rgb(22, 22, 22); font-weight: 400; text-anchor: middle;">T</text></g><g transform="translate(1000.4, 36)"><line x1="0" y1="-16" x2="0" y2="-2" style="stroke-width: 1; stroke: rgb(255, 255, 255);"/><line x1="0" y1="2" x2="0" y2="16" style="stroke-width: 1; stroke: rgb(255, 255, 255);"/></g><g transform="translate(1000.4, 76)"><line x1="0" y1="-16" x2="0" y2="-2" style="stroke-width: 1; stroke: rgb(255, 255, 255);"/><line x1="0" y1="2" x2="0" y2="16" style="stroke-width: 1; stroke: rgb(255, 255, 255);"/></g><g data-testid="phaseDisk-q[0]"><g transform="translate(1009.4, 20)"><defs><clipPath id="radix-:rve:"><circle cx="16" cy="16" r="16"/></clipPath></defs><g><circle cx="16" cy="16" r="16" fill="#e8e8e8"/><g clip-path="url(#radix-:rve:)"><rect x="0" y="16" width="32" height="16" fill="#33b1ff"/><rect x="0" y="0" width="32" height="16" fill="#e8e8e8"/></g><circle cx="16" cy="16" r="15.25" fill="none" stroke="#161616" stroke-width="1.5"/><line stroke="#161616" stroke-width="2" x1="16" y1="16" x2="15.99999930061776" y2="1.5987211554602254e-14"/></g></g><rect width="32" height="32" y="20" x="1009.4" data-state="closed" style="fill: transparent;"/></g><g data-testid="phaseDisk-q[1]"><g transform="translate(1009.4, 60)"><defs><clipPath id="radix-:rvf:"><circle cx="16" cy="16" r="16"/></clipPath></defs><g><circle cx="16" cy="16" r="16" fill="#e8e8e8"/><g clip-path="url(#radix-:rvf:)"><rect x="0" y="16" width="32" height="16" fill="#33b1ff"/><rect x="0" y="0" width="32" height="16" fill="#e8e8e8"/></g><circle cx="16" cy="16" r="15.25" fill="none" stroke="#161616" stroke-width="1.5"/><line stroke="#161616" stroke-width="2" x1="16" y1="16" x2="15.99999930061776" y2="1.5987211554602254e-14"/></g></g><rect width="32" height="32" y="60" x="1009.4" data-state="closed" style="fill: transparent;"/></g><g><rect x="1058.65" y="21.25" width="56.5" height="29.5" style="fill: rgb(255, 255, 255); stroke-width: 2.5; stroke: rgb(22, 22, 22); paint-order: stroke;"/><text x="1086.9" y="33" dy=".3em" style="font-family: &quot;IBM Plex Sans&quot;, sans-serif; font-size: 16px; font-style: normal; fill: rgb(22, 22, 22); font-weight: 400; text-anchor: middle;">RX</text><text x="1086.9" y="46" dy=".3em" style="font-family: &quot;IBM Plex Mono&quot;, monospace; font-size: 8px; font-style: normal; fill: rgb(22, 22, 22); font-weight: 400; text-anchor: middle;">(pi / 2)</text></g><g><rect x="1058.65" y="61.25" width="56.5" height="29.5" style="fill: rgb(255, 255, 255); stroke-width: 2.5; stroke: rgb(22, 22, 22); paint-order: stroke;"/><text x="1086.9" y="73" dy=".3em" style="font-family: &quot;IBM Plex Sans&quot;, sans-serif; font-size: 16px; font-style: normal; fill: rgb(22, 22, 22); font-weight: 400; text-anchor: middle;">RX</text><text x="1086.9" y="86" dy=".3em" style="font-family: &quot;IBM Plex Mono&quot;, monospace; font-size: 8px; font-style: normal; fill: rgb(22, 22, 22); font-weight: 400; text-anchor: middle;">(pi / 2)</text></g><g transform="translate(1132.4, 36)"><line x1="0" y1="-16" x2="0" y2="-2" style="stroke-width: 1; stroke: rgb(255, 255, 255);"/><line x1="0" y1="2" x2="0" y2="16" style="stroke-width: 1; stroke: rgb(255, 255, 255);"/></g><g transform="translate(1132.4, 76)"><line x1="0" y1="-16" x2="0" y2="-2" style="stroke-width: 1; stroke: rgb(255, 255, 255);"/><line x1="0" y1="2" x2="0" y2="16" style="stroke-width: 1; stroke: rgb(255, 255, 255);"/></g><g data-testid="phaseDisk-q[0]"><g transform="translate(1141.4, 20)"><defs><clipPath id="radix-:rvg:"><circle cx="16" cy="16" r="16"/></clipPath></defs><g><circle cx="16" cy="16" r="16" fill="#e8e8e8"/><g clip-path="url(#radix-:rvg:)"><rect x="0" y="32" width="32" height="0" fill="#33b1ff"/><rect x="0" y="0" width="32" height="32" fill="#e8e8e8"/></g><circle cx="16" cy="16" r="15.25" fill="none" stroke="#161616" stroke-width="1.5"/><line stroke="#161616" stroke-width="2" x1="16" y1="16" x2="32" y2="16"/></g></g><rect width="32" height="32" y="20" x="1141.4" data-state="closed" style="fill: transparent;"/></g><g data-testid="phaseDisk-q[1]"><g transform="translate(1141.4, 60)"><defs><clipPath id="radix-:rvh:"><circle cx="16" cy="16" r="16"/></clipPath></defs><g><circle cx="16" cy="16" r="16" fill="#e8e8e8"/><g clip-path="url(#radix-:rvh:)"><rect x="0" y="32" width="32" height="0" fill="#33b1ff"/><rect x="0" y="0" width="32" height="32" fill="#e8e8e8"/></g><circle cx="16" cy="16" r="15.25" fill="none" stroke="#161616" stroke-width="1.5"/><line stroke="#161616" stroke-width="2" x1="16" y1="16" x2="32" y2="16"/></g></g><rect width="32" height="32" y="60" x="1141.4" data-state="closed" style="fill: transparent;"/></g><g><rect x="1190.65" y="21.25" width="143.5" height="29.5" style="fill: rgb(255, 255, 255); stroke-width: 2.5; stroke: rgb(22, 22, 22); paint-order: stroke;"/><text x="1262.4" y="36" dy=".3em" style="font-family: &quot;IBM Plex Sans&quot;, sans-serif; font-size: 16px; font-style: normal; fill: rgb(22, 22, 22); font-weight: 400; text-anchor: middle;">kunfermanpibase</text></g><g><rect x="1190.65" y="61.25" width="143.5" height="29.5" style="fill: rgb(255, 255, 255); stroke-width: 2.5; stroke: rgb(22, 22, 22); paint-order: stroke;"/><text x="1262.4" y="76" dy=".3em" style="font-family: &quot;IBM Plex Sans&quot;, sans-serif; font-size: 16px; font-style: normal; fill: rgb(22, 22, 22); font-weight: 400; text-anchor: middle;">kunfermanpibase</text></g></g></svg>